<?xml version="1.0" encoding="UTF-8"?>
<!DOCTYPE svg PUBLIC "-//W3C//DTD SVG 1.1//EN" "http://www.w3.org/Graphics/SVG/1.1/DTD/svg11.dtd">
<svg version="1.1" xmlns="http://www.w3.org/2000/svg" xmlns:xlink="http://www.w3.org/1999/xlink" x="0" y="0" width="100" height="100" viewBox="0, 0, 100, 100">
  <defs>
    <clipPath id="Clip_1">
      <path d="M78.126,13.874 C82.544,13.874 86.126,17.456 86.126,21.874 L86.126,78.126 C86.126,82.544 82.544,86.126 78.126,86.126 L21.874,86.126 C17.456,86.126 13.874,82.544 13.874,78.126 L13.874,21.874 C13.874,17.456 17.456,13.874 21.874,13.874 L78.126,13.874 z"/>
    </clipPath>
    <filter id="InnerShadow_2">
      <feGaussianBlur in="SourceAlpha" stdDeviation="3.5"/>
      <feOffset dx="0" dy="-2" result="offsetblur"/>
      <feFlood flood-color="#002641"/>
      <feComposite in2="offsetblur" operator="in"/>
    </filter>
    <filter id="Shadow_3">
      <feGaussianBlur in="SourceAlpha" stdDeviation="1"/>
      <feOffset dx="0" dy="1" result="offsetblur"/>
      <feFlood flood-color="#000000"/>
      <feComposite in2="offsetblur" operator="in"/>
    </filter>
    <clipPath id="Clip_4">
      <path d="M57.886,23.319 L58.775,23.592 L59.117,23.489 L59.458,23.694 L60.142,23.66 L61.612,24.173 L62.979,25.164 L64.243,25.882 L65.406,27.112 L65.952,28.172 L66.192,28.309 L66.499,29.095 L66.91,31.351 L66.875,32.513 L66.739,32.65 L66.67,33.846 L65.952,36.204 L65.576,36.854 L65.371,36.888 L65.269,37.298 L64.209,38.426 L63.697,38.699 L63.56,39.041 L61.748,40.135 L60.962,40.374 L59.493,40.579 L59.117,40.408 L58.364,40.443 L56.929,39.896 L55.596,39.007 L54.639,37.469 L54.263,36.204 L54.502,34.359 L54.707,34.256 L54.707,34.051 L55.425,32.718 L55.733,32.308 L57.442,31.351 L58.16,31.419 L59.834,32.684 L59.766,33.06 L60.039,33.06 L60.244,33.538 L60.655,33.743 L60.655,33.914 L60.45,33.983 L60.176,33.778 L58.467,34.29 L57.408,35.452 L57.305,36.307 L57.032,36.649 L57.168,37.708 L57.578,38.836 L58.57,39.554 L59.219,39.656 L60.347,39.52 L62.671,38.255 L64.517,36.102 L64.859,35.384 L65.235,34.461 L65.747,32.103 L65.576,31.692 L65.542,30.462 L65.371,30.154 L65.542,29.813 L65.166,29.232 L64.995,29.061 L64.517,27.796 L63.286,26.702 L61.475,25.745 L59.356,25.335 L57.442,25.369 L55.562,25.848 L53.443,26.805 L52.212,27.694 L52.076,27.557 L50.811,29.232 L50.093,30.086 L49.854,30.633 L49.512,30.77 L49.58,31.043 L48.863,31.829 L49.068,32.479 L48.658,32.923 L48.623,33.812 L48.35,35.623 L48.418,36.58 L48.931,38.665 L49.17,39.315 L49.58,39.622 L49.854,40.545 L51.392,42.459 L54.024,44.476 L55.733,45.569 L56.587,46.219 L58.262,47.21 L60.62,48.885 L62.056,50.286 L62.124,50.696 L62.705,50.936 L62.671,51.346 L62.979,51.483 L63.321,52.098 L63.662,52.166 L64.175,52.884 L64.38,53.602 L64.927,54.114 L65.508,56.234 L65.303,56.37 L65.611,56.678 L65.542,56.986 L65.85,57.635 L65.747,57.943 L65.918,58.113 L65.918,60.096 L65.747,60.301 L65.816,60.882 L65.542,61.19 L65.679,61.6 L65.303,62.147 L65.44,62.42 L65.235,62.762 L65.235,63.582 L65.064,63.685 L64.209,65.599 L63.184,66.829 L63.184,67.171 L61.475,68.846 L59.937,70.247 L57.954,71.443 L56.006,72.366 L55.254,72.776 L54.81,72.776 L53.238,73.358 L50.845,73.939 L48.316,74.349 L47.154,74.212 L46.504,74.212 L43.907,74.041 L42.881,73.905 L40.284,73.05 L39.873,73.016 L37.823,71.956 L36.25,70.897 L35.259,69.905 L33.106,67.068 L33.037,66.624 L32.456,65.257 L31.91,62.694 L31.944,60.677 L31.944,60.403 L32.183,59.857 L32.285,58.524 L32.901,56.473 L33.824,54.49 L35.772,52.166 L36.114,52.2 L36.25,51.79 L37.925,50.526 L40.454,49.363 L42.608,48.851 L45.752,48.509 L47.154,48.68 L49.614,49.193 L49.717,49.329 L49.922,49.363 L52.007,50.457 L52.383,50.526 L52.554,51.004 L53.033,50.936 L53.579,51.893 L53.785,52.064 L54.366,52.405 L55.459,54.388 L55.493,54.49 L55.801,54.695 L56.109,56.165 L55.869,56.37 L56.28,57.943 L55.869,58.284 L56.177,58.455 L55.801,59.481 L55.835,59.72 L55.528,60.164 L55.733,60.369 L55.425,60.609 L54.981,61.429 L53.853,62.899 L53.716,63.172 L53.306,63.172 L51.426,64.471 L50.093,64.813 L47.427,65.018 L46.231,64.573 L45.239,63.821 L44.043,62.488 L43.462,60.438 L43.462,60.164 L43.804,59.139 L44.624,57.874 L45.239,57.498 L46.675,56.986 L46.914,57.293 L47.256,57.293 L47.769,57.806 L48.042,58.25 L48.247,58.694 L47.974,58.934 L47.871,59.412 L47.154,60.643 L47.222,60.677 L46.231,60.643 L45.376,60.369 L45.171,60.677 L45.035,61.463 L45.308,62.352 L46.299,63.582 L47.632,63.856 L49.034,63.89 L49.58,63.582 L49.82,63.582 L51.324,62.249 L51.324,62.181 L51.768,61.497 L51.734,61.292 L52.759,59.002 L52.964,56.131 L52.417,54.285 L51.734,52.85 L50.64,51.619 L48.999,50.423 L47.564,49.979 L45.786,49.603 L43.736,49.739 L43.189,49.944 L40.557,50.936 L39.19,52.029 L38.916,52.166 L37.002,53.978 L35.909,55.653 L35.396,56.507 L35.054,57.84 L34.746,59.754 L34.678,60.677 L34.644,61.839 L35.02,62.933 L35.293,64.642 L36.114,66.453 L36.968,68.299 L37.105,68.436 L37.412,68.538 L38.13,69.564 L39.087,70.418 L41.411,71.888 L42.744,72.435 L44.932,72.742 L47.29,72.811 L47.632,72.674 L48.111,72.879 L48.487,72.64 L49.888,72.4 L50.059,72.332 L50.743,72.23 L52.691,71.546 L54.331,70.555 L54.434,70.555 L55.767,69.7 L57.1,68.572 L57.749,67.957 L59.185,66.077 L60.108,64.402 L60.45,63.104 L60.996,60.985 L60.928,59.891 L61.338,59.105 L61.133,58.592 L61.236,57.737 L61.099,57.464 L60.826,55.994 L60.279,54.046 L59.937,52.986 L58.775,50.97 L58.672,50.833 L57.544,49.808 L57.271,49.295 L56.997,49.193 L56.28,48.475 L55.049,47.381 L54.639,47.039 L50.332,43.963 L49.102,43.074 L47.051,41.092 L46.026,39.554 L44.761,36.307 L44.624,33.538 L44.556,32.991 L44.966,32.274 L44.898,32.069 L45.581,30.086 L46.402,28.787 L48.247,26.736 L50.264,25.438 L52.827,23.968 L53.853,23.66 L55.254,23.592 L56.553,23.319 L57.237,23.387 L57.886,23.319 z"/>
    </clipPath>
    <filter id="InnerShadow_5">
      <feGaussianBlur in="SourceAlpha" stdDeviation="2.5"/>
      <feOffset dx="0" dy="-2" result="offsetblur"/>
      <feFlood flood-color="#140033"/>
      <feComposite in2="offsetblur" operator="in"/>
    </filter>
  </defs>
  <g id="Layer_1">
    <g>
      <path d="M21.874,13.874 L78.126,13.874 C82.544,13.874 86.126,17.456 86.126,21.874 L86.126,78.126 C86.126,82.544 82.544,86.126 78.126,86.126 L21.874,86.126 C17.456,86.126 13.874,82.544 13.874,78.126 L13.874,21.874 C13.874,17.456 17.456,13.874 21.874,13.874 z" fill="#00BDFF"/>
      <path d="M5.874,3.874 L94.126,3.874 L94.126,96.126 L5.874,96.126 z M78.126,13.874 L21.874,13.874 C17.456,13.874 13.874,17.456 13.874,21.874 L13.874,78.126 C13.874,82.544 17.456,86.126 21.874,86.126 L78.126,86.126 C82.544,86.126 86.126,82.544 86.126,78.126 L86.126,21.874 C86.126,17.456 82.544,13.874 78.126,13.874 z" clip-path="url(#Clip_1)" filter="url(#InnerShadow_2)" fill="rgba(0,0,0,0.936)"/>
    </g>
    <g>
      <path d="M57.886,23.319 L58.775,23.592 L59.117,23.489 L59.458,23.694 L60.142,23.66 L61.612,24.173 L62.979,25.164 L64.243,25.882 L65.406,27.112 L65.952,28.172 L66.192,28.309 L66.499,29.095 L66.91,31.351 L66.875,32.513 L66.739,32.65 L66.67,33.846 L65.952,36.204 L65.576,36.854 L65.371,36.888 L65.269,37.298 L64.209,38.426 L63.697,38.699 L63.56,39.041 L61.748,40.135 L60.962,40.374 L59.493,40.579 L59.117,40.408 L58.364,40.443 L56.929,39.896 L55.596,39.007 L54.639,37.469 L54.263,36.204 L54.502,34.359 L54.707,34.256 L54.707,34.051 L55.425,32.718 L55.733,32.308 L57.442,31.351 L58.16,31.419 L59.834,32.684 L59.766,33.06 L60.039,33.06 L60.244,33.538 L60.655,33.743 L60.655,33.914 L60.45,33.983 L60.176,33.778 L58.467,34.29 L57.408,35.452 L57.305,36.307 L57.032,36.649 L57.168,37.708 L57.578,38.836 L58.57,39.554 L59.219,39.656 L60.347,39.52 L62.671,38.255 L64.517,36.102 L64.859,35.384 L65.235,34.461 L65.747,32.103 L65.576,31.692 L65.542,30.462 L65.371,30.154 L65.542,29.813 L65.166,29.232 L64.995,29.061 L64.517,27.796 L63.286,26.702 L61.475,25.745 L59.356,25.335 L57.442,25.369 L55.562,25.848 L53.443,26.805 L52.212,27.694 L52.076,27.557 L50.811,29.232 L50.093,30.086 L49.854,30.633 L49.512,30.77 L49.58,31.043 L48.863,31.829 L49.068,32.479 L48.658,32.923 L48.623,33.812 L48.35,35.623 L48.418,36.58 L48.931,38.665 L49.17,39.315 L49.58,39.622 L49.854,40.545 L51.392,42.459 L54.024,44.476 L55.733,45.569 L56.587,46.219 L58.262,47.21 L60.62,48.885 L62.056,50.286 L62.124,50.696 L62.705,50.936 L62.671,51.346 L62.979,51.483 L63.321,52.098 L63.662,52.166 L64.175,52.884 L64.38,53.602 L64.927,54.114 L65.508,56.234 L65.303,56.37 L65.611,56.678 L65.542,56.986 L65.85,57.635 L65.747,57.943 L65.918,58.113 L65.918,60.096 L65.747,60.301 L65.816,60.882 L65.542,61.19 L65.679,61.6 L65.303,62.147 L65.44,62.42 L65.235,62.762 L65.235,63.582 L65.064,63.685 L64.209,65.599 L63.184,66.829 L63.184,67.171 L61.475,68.846 L59.937,70.247 L57.954,71.443 L56.006,72.366 L55.254,72.776 L54.81,72.776 L53.238,73.358 L50.845,73.939 L48.316,74.349 L47.154,74.212 L46.504,74.212 L43.907,74.041 L42.881,73.905 L40.284,73.05 L39.873,73.016 L37.823,71.956 L36.25,70.897 L35.259,69.905 L33.106,67.068 L33.037,66.624 L32.456,65.257 L31.91,62.694 L31.944,60.677 L31.944,60.403 L32.183,59.857 L32.285,58.524 L32.901,56.473 L33.824,54.49 L35.772,52.166 L36.114,52.2 L36.25,51.79 L37.925,50.526 L40.454,49.363 L42.608,48.851 L45.752,48.509 L47.154,48.68 L49.614,49.193 L49.717,49.329 L49.922,49.363 L52.007,50.457 L52.383,50.526 L52.554,51.004 L53.033,50.936 L53.579,51.893 L53.785,52.064 L54.366,52.405 L55.459,54.388 L55.493,54.49 L55.801,54.695 L56.109,56.165 L55.869,56.37 L56.28,57.943 L55.869,58.284 L56.177,58.455 L55.801,59.481 L55.835,59.72 L55.528,60.164 L55.733,60.369 L55.425,60.609 L54.981,61.429 L53.853,62.899 L53.716,63.172 L53.306,63.172 L51.426,64.471 L50.093,64.813 L47.427,65.018 L46.231,64.573 L45.239,63.821 L44.043,62.488 L43.462,60.438 L43.462,60.164 L43.804,59.139 L44.624,57.874 L45.239,57.498 L46.675,56.986 L46.914,57.293 L47.256,57.293 L47.769,57.806 L48.042,58.25 L48.247,58.694 L47.974,58.934 L47.871,59.412 L47.154,60.643 L47.222,60.677 L46.231,60.643 L45.376,60.369 L45.171,60.677 L45.035,61.463 L45.308,62.352 L46.299,63.582 L47.632,63.856 L49.034,63.89 L49.58,63.582 L49.82,63.582 L51.324,62.249 L51.324,62.181 L51.768,61.497 L51.734,61.292 L52.759,59.002 L52.964,56.131 L52.417,54.285 L51.734,52.85 L50.64,51.619 L48.999,50.423 L47.564,49.979 L45.786,49.603 L43.736,49.739 L43.189,49.944 L40.557,50.936 L39.19,52.029 L38.916,52.166 L37.002,53.978 L35.909,55.653 L35.396,56.507 L35.054,57.84 L34.746,59.754 L34.678,60.677 L34.644,61.839 L35.02,62.933 L35.293,64.642 L36.114,66.453 L36.968,68.299 L37.105,68.436 L37.412,68.538 L38.13,69.564 L39.087,70.418 L41.411,71.888 L42.744,72.435 L44.932,72.742 L47.29,72.811 L47.632,72.674 L48.111,72.879 L48.487,72.64 L49.888,72.4 L50.059,72.332 L50.743,72.23 L52.691,71.546 L54.331,70.555 L54.434,70.555 L55.767,69.7 L57.1,68.572 L57.749,67.957 L59.185,66.077 L60.108,64.402 L60.45,63.104 L60.996,60.985 L60.928,59.891 L61.338,59.105 L61.133,58.592 L61.236,57.737 L61.099,57.464 L60.826,55.994 L60.279,54.046 L59.937,52.986 L58.775,50.97 L58.672,50.833 L57.544,49.808 L57.271,49.295 L56.997,49.193 L56.28,48.475 L55.049,47.381 L54.639,47.039 L50.332,43.963 L49.102,43.074 L47.051,41.092 L46.026,39.554 L44.761,36.307 L44.624,33.538 L44.556,32.991 L44.966,32.274 L44.898,32.069 L45.581,30.086 L46.402,28.787 L48.247,26.736 L50.264,25.438 L52.827,23.968 L53.853,23.66 L55.254,23.592 L56.553,23.319 L57.237,23.387 L57.886,23.319 z" filter="url(#Shadow_3)" fill="rgba(0,0,0,0.9)"/>
      <path d="M57.237,23.387 L57.886,23.319 L58.775,23.592 L59.117,23.489 L59.458,23.695 L60.142,23.66 L61.612,24.173 L62.979,25.164 L64.243,25.882 L65.406,27.113 L65.952,28.172 L66.192,28.309 L66.499,29.095 L66.91,31.351 L66.875,32.513 L66.739,32.65 L66.67,33.846 L65.952,36.204 L65.577,36.854 L65.371,36.888 L65.269,37.298 L64.209,38.426 L63.697,38.699 L63.56,39.041 L61.748,40.135 L60.962,40.374 L59.493,40.579 L59.117,40.408 L58.365,40.443 L56.929,39.896 L55.596,39.007 L54.639,37.469 L54.263,36.204 L54.502,34.359 L54.707,34.256 L54.707,34.051 L55.425,32.718 L55.733,32.308 L57.442,31.351 L58.16,31.419 L59.834,32.684 L59.766,33.06 L60.039,33.06 L60.244,33.538 L60.655,33.743 L60.655,33.914 L60.45,33.983 L60.176,33.778 L58.467,34.29 L57.408,35.452 L57.305,36.307 L57.032,36.649 L57.168,37.708 L57.578,38.836 L58.57,39.554 L59.219,39.656 L60.347,39.52 L62.671,38.255 L64.517,36.102 L64.859,35.384 L65.235,34.461 L65.747,32.103 L65.577,31.693 L65.542,30.462 L65.371,30.155 L65.542,29.813 L65.166,29.232 L64.995,29.061 L64.517,27.796 L63.286,26.702 L61.475,25.745 L59.356,25.335 L57.442,25.369 L55.562,25.848 L53.443,26.805 L52.212,27.694 L52.076,27.557 L50.811,29.232 L50.093,30.086 L49.854,30.633 L49.512,30.77 L49.58,31.043 L48.863,31.829 L49.068,32.479 L48.658,32.923 L48.623,33.812 L48.35,35.623 L48.418,36.58 L48.931,38.665 L49.17,39.315 L49.58,39.622 L49.854,40.545 L51.392,42.459 L54.024,44.476 L55.733,45.57 L56.587,46.219 L58.262,47.21 L60.62,48.885 L62.056,50.286 L62.124,50.696 L62.705,50.936 L62.671,51.346 L62.979,51.483 L63.321,52.098 L63.662,52.166 L64.175,52.884 L64.38,53.602 L64.927,54.114 L65.508,56.234 L65.303,56.37 L65.611,56.678 L65.542,56.986 L65.85,57.635 L65.747,57.943 L65.918,58.113 L65.918,60.096 L65.747,60.301 L65.816,60.882 L65.542,61.19 L65.679,61.6 L65.303,62.147 L65.44,62.42 L65.235,62.762 L65.235,63.582 L65.064,63.685 L64.209,65.599 L63.184,66.829 L63.184,67.171 L61.475,68.846 L59.937,70.247 L57.954,71.444 L56.006,72.366 L55.254,72.777 L54.81,72.777 L53.238,73.358 L50.845,73.939 L48.316,74.349 L47.154,74.212 L46.504,74.212 L43.907,74.041 L42.881,73.905 L40.284,73.05 L39.873,73.016 L37.823,71.956 L36.25,70.897 L35.259,69.905 L33.106,67.069 L33.037,66.624 L32.456,65.257 L31.91,62.694 L31.944,60.677 L31.944,60.404 L32.183,59.857 L32.285,58.524 L32.901,56.473 L33.824,54.49 L35.772,52.166 L36.114,52.2 L36.25,51.79 L37.925,50.526 L40.454,49.363 L42.608,48.851 L45.752,48.509 L47.154,48.68 L49.615,49.193 L49.717,49.329 L49.922,49.363 L52.007,50.457 L52.383,50.526 L52.554,51.004 L53.033,50.936 L53.579,51.893 L53.785,52.064 L54.366,52.405 L55.459,54.388 L55.494,54.49 L55.801,54.696 L56.109,56.165 L55.869,56.37 L56.28,57.943 L55.869,58.284 L56.177,58.455 L55.801,59.481 L55.835,59.72 L55.528,60.164 L55.733,60.369 L55.425,60.609 L54.981,61.429 L53.853,62.899 L53.716,63.172 L53.306,63.172 L51.426,64.471 L50.093,64.813 L47.427,65.018 L46.231,64.573 L45.24,63.821 L44.043,62.488 L43.462,60.438 L43.462,60.164 L43.804,59.139 L44.624,57.874 L45.24,57.498 L46.675,56.986 L46.914,57.293 L47.256,57.293 L47.769,57.806 L48.042,58.25 L48.247,58.695 L47.974,58.934 L47.871,59.412 L47.154,60.643 L47.222,60.677 L46.231,60.643 L45.376,60.369 L45.171,60.677 L45.035,61.463 L45.308,62.352 L46.299,63.582 L47.632,63.856 L49.034,63.89 L49.58,63.582 L49.82,63.582 L51.324,62.249 L51.324,62.181 L51.768,61.497 L51.734,61.292 L52.759,59.002 L52.964,56.131 L52.417,54.285 L51.734,52.85 L50.64,51.619 L48.999,50.423 L47.564,49.979 L45.786,49.603 L43.736,49.739 L43.189,49.945 L40.557,50.936 L39.19,52.03 L38.916,52.166 L37.002,53.978 L35.909,55.653 L35.396,56.507 L35.054,57.84 L34.746,59.754 L34.678,60.677 L34.644,61.839 L35.02,62.933 L35.293,64.642 L36.114,66.453 L36.968,68.299 L37.105,68.436 L37.412,68.538 L38.13,69.564 L39.087,70.418 L41.411,71.888 L42.744,72.435 L44.932,72.742 L47.29,72.811 L47.632,72.674 L48.111,72.879 L48.487,72.64 L49.888,72.401 L50.059,72.332 L50.743,72.23 L52.691,71.546 L54.331,70.555 L54.434,70.555 L55.767,69.7 L57.1,68.572 L57.749,67.957 L59.185,66.077 L60.108,64.403 L60.45,63.104 L60.996,60.985 L60.928,59.891 L61.338,59.105 L61.133,58.592 L61.236,57.738 L61.099,57.464 L60.826,55.994 L60.279,54.046 L59.937,52.987 L58.775,50.97 L58.672,50.833 L57.544,49.808 L57.271,49.295 L56.997,49.193 L56.28,48.475 L55.049,47.381 L54.639,47.039 L50.332,43.963 L49.102,43.074 L47.051,41.092 L46.026,39.554 L44.761,36.307 L44.624,33.538 L44.556,32.991 L44.966,32.274 L44.898,32.069 L45.581,30.086 L46.402,28.787 L48.247,26.737 L50.264,25.438 L52.827,23.968 L53.853,23.66 L55.254,23.592 L56.553,23.319 z" fill="#320082"/>
      <path d="M25.91,15.318 L72.91,15.318 L72.91,82.349 L25.91,82.349 z M57.886,23.319 L57.237,23.387 L56.553,23.319 L55.254,23.592 L53.853,23.66 L52.827,23.968 L50.264,25.438 L48.247,26.736 L46.402,28.787 L45.581,30.086 L44.898,32.069 L44.966,32.274 L44.556,32.991 L44.624,33.538 L44.761,36.307 L46.026,39.554 L47.051,41.092 L49.102,43.074 L50.332,43.963 L54.639,47.039 L55.049,47.381 L56.28,48.475 L56.997,49.193 L57.271,49.295 L57.544,49.808 L58.672,50.833 L58.775,50.97 L59.937,52.986 L60.279,54.046 L60.826,55.994 L61.099,57.464 L61.236,57.737 L61.133,58.592 L61.338,59.105 L60.928,59.891 L60.996,60.985 L60.45,63.104 L60.108,64.402 L59.185,66.077 L57.749,67.957 L57.1,68.572 L55.767,69.7 L54.434,70.555 L54.331,70.555 L52.691,71.546 L50.743,72.23 L50.059,72.332 L49.888,72.4 L48.487,72.64 L48.111,72.879 L47.632,72.674 L47.29,72.811 L44.932,72.742 L42.744,72.435 L41.411,71.888 L39.087,70.418 L38.13,69.564 L37.412,68.538 L37.105,68.436 L36.968,68.299 L36.114,66.453 L35.293,64.642 L35.02,62.933 L34.644,61.839 L34.678,60.677 L34.746,59.754 L35.054,57.84 L35.396,56.507 L35.909,55.653 L37.002,53.978 L38.916,52.166 L39.19,52.029 L40.557,50.936 L43.189,49.944 L43.736,49.739 L45.786,49.603 L47.564,49.979 L48.999,50.423 L50.64,51.619 L51.734,52.85 L52.417,54.285 L52.964,56.131 L52.759,59.002 L51.734,61.292 L51.768,61.497 L51.324,62.181 L51.324,62.249 L49.82,63.582 L49.58,63.582 L49.034,63.89 L47.632,63.856 L46.299,63.582 L45.308,62.352 L45.035,61.463 L45.171,60.677 L45.376,60.369 L46.231,60.643 L47.222,60.677 L47.154,60.643 L47.871,59.412 L47.974,58.934 L48.247,58.694 L48.042,58.25 L47.769,57.806 L47.256,57.293 L46.914,57.293 L46.675,56.986 L45.239,57.498 L44.624,57.874 L43.804,59.139 L43.462,60.164 L43.462,60.438 L44.043,62.488 L45.239,63.821 L46.231,64.573 L47.427,65.018 L50.093,64.813 L51.426,64.471 L53.306,63.172 L53.716,63.172 L53.853,62.899 L54.981,61.429 L55.425,60.609 L55.733,60.369 L55.528,60.164 L55.835,59.72 L55.801,59.481 L56.177,58.455 L55.869,58.284 L56.28,57.943 L55.869,56.37 L56.109,56.165 L55.801,54.695 L55.493,54.49 L55.459,54.388 L54.366,52.405 L53.785,52.064 L53.579,51.893 L53.033,50.936 L52.554,51.004 L52.383,50.526 L52.007,50.457 L49.922,49.363 L49.717,49.329 L49.614,49.193 L47.154,48.68 L45.752,48.509 L42.608,48.851 L40.454,49.363 L37.925,50.526 L36.25,51.79 L36.114,52.2 L35.772,52.166 L33.824,54.49 L32.901,56.473 L32.285,58.524 L32.183,59.857 L31.944,60.403 L31.944,60.677 L31.91,62.694 L32.456,65.257 L33.037,66.624 L33.106,67.068 L35.259,69.905 L36.25,70.897 L37.823,71.956 L39.873,73.016 L40.284,73.05 L42.881,73.905 L43.907,74.041 L46.504,74.212 L47.154,74.212 L48.316,74.349 L50.845,73.939 L53.238,73.358 L54.81,72.776 L55.254,72.776 L56.006,72.366 L57.954,71.443 L59.937,70.247 L61.475,68.846 L63.184,67.171 L63.184,66.829 L64.209,65.599 L65.064,63.685 L65.235,63.582 L65.235,62.762 L65.44,62.42 L65.303,62.147 L65.679,61.6 L65.542,61.19 L65.816,60.882 L65.747,60.301 L65.918,60.096 L65.918,58.113 L65.747,57.943 L65.85,57.635 L65.542,56.986 L65.611,56.678 L65.303,56.37 L65.508,56.234 L64.927,54.114 L64.38,53.602 L64.175,52.884 L63.662,52.166 L63.321,52.098 L62.979,51.483 L62.671,51.346 L62.705,50.936 L62.124,50.696 L62.056,50.286 L60.62,48.885 L58.262,47.21 L56.587,46.219 L55.733,45.569 L54.024,44.476 L51.392,42.459 L49.854,40.545 L49.58,39.622 L49.17,39.315 L48.931,38.665 L48.418,36.58 L48.35,35.623 L48.623,33.812 L48.658,32.923 L49.068,32.479 L48.863,31.829 L49.58,31.043 L49.512,30.77 L49.854,30.633 L50.093,30.086 L50.811,29.232 L52.076,27.557 L52.212,27.694 L53.443,26.805 L55.562,25.848 L57.442,25.369 L59.356,25.335 L61.475,25.745 L63.286,26.702 L64.517,27.796 L64.995,29.061 L65.166,29.232 L65.542,29.813 L65.371,30.154 L65.542,30.462 L65.576,31.692 L65.747,32.103 L65.235,34.461 L64.859,35.384 L64.517,36.102 L62.671,38.255 L60.347,39.52 L59.219,39.656 L58.57,39.554 L57.578,38.836 L57.168,37.708 L57.032,36.649 L57.305,36.307 L57.408,35.452 L58.467,34.29 L60.176,33.778 L60.45,33.983 L60.655,33.914 L60.655,33.743 L60.244,33.538 L60.039,33.06 L59.766,33.06 L59.834,32.684 L58.16,31.419 L57.442,31.351 L55.733,32.308 L55.425,32.718 L54.707,34.051 L54.707,34.256 L54.502,34.359 L54.263,36.204 L54.639,37.469 L55.596,39.007 L56.929,39.896 L58.364,40.443 L59.117,40.408 L59.493,40.579 L60.962,40.374 L61.748,40.135 L63.56,39.041 L63.697,38.699 L64.209,38.426 L65.269,37.298 L65.371,36.888 L65.576,36.854 L65.952,36.204 L66.67,33.846 L66.739,32.65 L66.875,32.513 L66.91,31.351 L66.499,29.095 L66.192,28.309 L65.952,28.172 L65.406,27.112 L64.243,25.882 L62.979,25.164 L61.612,24.173 L60.142,23.66 L59.458,23.694 L59.117,23.489 L58.775,23.592 L57.886,23.319 z" clip-path="url(#Clip_4)" filter="url(#InnerShadow_5)" fill="rgba(0,0,0,0.75)"/>
    </g>
  </g>
</svg>
