<?xml version="1.0" encoding="UTF-8"?>
<!DOCTYPE svg PUBLIC "-//W3C//DTD SVG 1.1//EN" "http://www.w3.org/Graphics/SVG/1.1/DTD/svg11.dtd">
<svg version="1.1" xmlns="http://www.w3.org/2000/svg" xmlns:xlink="http://www.w3.org/1999/xlink" x="0" y="0" width="72" height="72" viewBox="0, 0, 72, 72">
  <defs>
    <filter id="Shadow_1">
      <feGaussianBlur in="SourceAlpha" stdDeviation="1"/>
      <feOffset dx="0" dy="1" result="offsetblur"/>
      <feFlood flood-color="#000000"/>
      <feComposite in2="offsetblur" operator="in"/>
    </filter>
    <clipPath id="Clip_2">
      <path d="M44.477,10.485 L45.365,10.758 L45.707,10.656 L46.049,10.861 L46.732,10.827 L48.202,11.339 L49.569,12.33 L50.834,13.048 L51.996,14.279 L52.543,15.338 L52.782,15.475 L53.09,16.261 L53.5,18.517 L53.466,19.679 L53.329,19.816 L53.261,21.012 L52.543,23.371 L52.167,24.02 L51.962,24.054 L51.859,24.464 L50.8,25.592 L50.287,25.866 L50.15,26.208 L48.339,27.301 L47.553,27.541 L46.083,27.746 L45.707,27.575 L44.955,27.609 L43.52,27.062 L42.187,26.173 L41.229,24.635 L40.854,23.371 L41.093,21.525 L41.298,21.422 L41.298,21.217 L42.016,19.884 L42.323,19.474 L44.032,18.517 L44.75,18.585 L46.425,19.85 L46.356,20.226 L46.63,20.226 L46.835,20.705 L47.245,20.91 L47.245,21.08 L47.04,21.149 L46.766,20.944 L45.058,21.456 L43.998,22.619 L43.896,23.473 L43.622,23.815 L43.759,24.875 L44.169,26.002 L45.16,26.72 L45.81,26.823 L46.938,26.686 L49.262,25.421 L51.107,23.268 L51.449,22.55 L51.825,21.627 L52.338,19.269 L52.167,18.859 L52.133,17.628 L51.962,17.321 L52.133,16.979 L51.757,16.398 L51.586,16.227 L51.107,14.962 L49.877,13.869 L48.065,12.912 L45.946,12.501 L44.032,12.536 L42.152,13.014 L40.033,13.971 L38.803,14.86 L38.666,14.723 L37.401,16.398 L36.683,17.252 L36.444,17.799 L36.103,17.936 L36.171,18.209 L35.453,18.996 L35.658,19.645 L35.248,20.089 L35.214,20.978 L34.94,22.789 L35.009,23.747 L35.521,25.831 L35.761,26.481 L36.171,26.788 L36.444,27.711 L37.982,29.625 L40.614,31.642 L42.323,32.736 L43.178,33.385 L44.853,34.376 L47.211,36.051 L48.646,37.453 L48.715,37.863 L49.296,38.102 L49.262,38.512 L49.569,38.649 L49.911,39.264 L50.253,39.333 L50.766,40.05 L50.971,40.768 L51.518,41.281 L52.099,43.4 L51.894,43.537 L52.201,43.844 L52.133,44.152 L52.44,44.801 L52.338,45.109 L52.509,45.28 L52.509,47.262 L52.338,47.467 L52.406,48.048 L52.133,48.356 L52.27,48.766 L51.894,49.313 L52.03,49.586 L51.825,49.928 L51.825,50.749 L51.654,50.851 L50.8,52.765 L49.774,53.996 L49.774,54.337 L48.065,56.012 L46.527,57.414 L44.545,58.61 L42.597,59.533 L41.845,59.943 L41.4,59.943 L39.828,60.524 L37.436,61.105 L34.906,61.515 L33.744,61.378 L33.095,61.378 L30.497,61.208 L29.472,61.071 L26.874,60.216 L26.464,60.182 L24.413,59.123 L22.841,58.063 L21.85,57.072 L19.696,54.235 L19.628,53.791 L19.047,52.423 L18.5,49.86 L18.534,47.843 L18.534,47.57 L18.773,47.023 L18.876,45.69 L19.491,43.639 L20.414,41.657 L22.362,39.333 L22.704,39.367 L22.841,38.957 L24.516,37.692 L27.045,36.53 L29.198,36.017 L32.343,35.675 L33.744,35.846 L36.205,36.359 L36.308,36.496 L36.513,36.53 L38.598,37.624 L38.974,37.692 L39.145,38.17 L39.623,38.102 L40.17,39.059 L40.375,39.23 L40.956,39.572 L42.05,41.554 L42.084,41.657 L42.392,41.862 L42.699,43.332 L42.46,43.537 L42.87,45.109 L42.46,45.451 L42.768,45.621 L42.392,46.647 L42.426,46.886 L42.118,47.331 L42.323,47.536 L42.016,47.775 L41.571,48.595 L40.443,50.065 L40.307,50.338 L39.896,50.338 L38.017,51.637 L36.683,51.979 L34.018,52.184 L32.821,51.74 L31.83,50.988 L30.634,49.655 L30.053,47.604 L30.053,47.331 L30.395,46.305 L31.215,45.041 L31.83,44.665 L33.266,44.152 L33.505,44.459 L33.847,44.459 L34.359,44.972 L34.633,45.417 L34.838,45.861 L34.564,46.1 L34.462,46.579 L33.744,47.809 L33.812,47.843 L32.821,47.809 L31.967,47.536 L31.762,47.843 L31.625,48.629 L31.898,49.518 L32.89,50.749 L34.223,51.022 L35.624,51.056 L36.171,50.749 L36.41,50.749 L37.914,49.416 L37.914,49.347 L38.358,48.664 L38.324,48.458 L39.35,46.168 L39.555,43.297 L39.008,41.452 L38.324,40.016 L37.23,38.786 L35.59,37.589 L34.154,37.145 L32.377,36.769 L30.326,36.906 L29.779,37.111 L27.147,38.102 L25.78,39.196 L25.507,39.333 L23.593,41.144 L22.499,42.819 L21.986,43.673 L21.645,45.006 L21.337,46.92 L21.268,47.843 L21.234,49.005 L21.61,50.099 L21.884,51.808 L22.704,53.62 L23.559,55.465 L23.695,55.602 L24.003,55.704 L24.721,56.73 L25.678,57.584 L28.002,59.054 L29.335,59.601 L31.522,59.909 L33.881,59.977 L34.223,59.84 L34.701,60.045 L35.077,59.806 L36.479,59.567 L36.649,59.499 L37.333,59.396 L39.281,58.712 L40.922,57.721 L41.024,57.721 L42.357,56.867 L43.69,55.739 L44.34,55.124 L45.775,53.244 L46.698,51.569 L47.04,50.27 L47.587,48.151 L47.519,47.057 L47.929,46.271 L47.724,45.758 L47.826,44.904 L47.689,44.63 L47.416,43.161 L46.869,41.212 L46.527,40.153 L45.365,38.136 L45.263,38 L44.135,36.974 L43.861,36.461 L43.588,36.359 L42.87,35.641 L41.64,34.547 L41.229,34.206 L36.923,31.129 L35.692,30.241 L33.642,28.258 L32.616,26.72 L31.351,23.473 L31.215,20.705 L31.146,20.158 L31.557,19.44 L31.488,19.235 L32.172,17.252 L32.992,15.954 L34.838,13.903 L36.854,12.604 L39.418,11.134 L40.443,10.827 L41.845,10.758 L43.144,10.485 L43.827,10.553 L44.477,10.485 z"/>
    </clipPath>
    <filter id="InnerShadow_3">
      <feGaussianBlur in="SourceAlpha" stdDeviation="2.5"/>
      <feOffset dx="0" dy="-2" result="offsetblur"/>
      <feFlood flood-color="#140033"/>
      <feComposite in2="offsetblur" operator="in"/>
    </filter>
  </defs>
  <g id="Layer_1">
    <g>
      <path d="M44.477,10.485 L45.365,10.758 L45.707,10.656 L46.049,10.861 L46.732,10.827 L48.202,11.339 L49.569,12.33 L50.834,13.048 L51.996,14.279 L52.543,15.338 L52.782,15.475 L53.09,16.261 L53.5,18.517 L53.466,19.679 L53.329,19.816 L53.261,21.012 L52.543,23.371 L52.167,24.02 L51.962,24.054 L51.859,24.464 L50.8,25.592 L50.287,25.866 L50.15,26.208 L48.339,27.301 L47.553,27.541 L46.083,27.746 L45.707,27.575 L44.955,27.609 L43.52,27.062 L42.187,26.173 L41.229,24.635 L40.854,23.371 L41.093,21.525 L41.298,21.422 L41.298,21.217 L42.016,19.884 L42.323,19.474 L44.032,18.517 L44.75,18.585 L46.425,19.85 L46.356,20.226 L46.63,20.226 L46.835,20.705 L47.245,20.91 L47.245,21.08 L47.04,21.149 L46.766,20.944 L45.058,21.456 L43.998,22.619 L43.896,23.473 L43.622,23.815 L43.759,24.875 L44.169,26.002 L45.16,26.72 L45.81,26.823 L46.938,26.686 L49.262,25.421 L51.107,23.268 L51.449,22.55 L51.825,21.627 L52.338,19.269 L52.167,18.859 L52.133,17.628 L51.962,17.321 L52.133,16.979 L51.757,16.398 L51.586,16.227 L51.107,14.962 L49.877,13.869 L48.065,12.912 L45.946,12.501 L44.032,12.536 L42.152,13.014 L40.033,13.971 L38.803,14.86 L38.666,14.723 L37.401,16.398 L36.683,17.252 L36.444,17.799 L36.103,17.936 L36.171,18.209 L35.453,18.996 L35.658,19.645 L35.248,20.089 L35.214,20.978 L34.94,22.789 L35.009,23.747 L35.521,25.831 L35.761,26.481 L36.171,26.788 L36.444,27.711 L37.982,29.625 L40.614,31.642 L42.323,32.736 L43.178,33.385 L44.853,34.376 L47.211,36.051 L48.646,37.453 L48.715,37.863 L49.296,38.102 L49.262,38.512 L49.569,38.649 L49.911,39.264 L50.253,39.333 L50.766,40.05 L50.971,40.768 L51.518,41.281 L52.099,43.4 L51.894,43.537 L52.201,43.844 L52.133,44.152 L52.44,44.801 L52.338,45.109 L52.509,45.28 L52.509,47.262 L52.338,47.467 L52.406,48.048 L52.133,48.356 L52.27,48.766 L51.894,49.313 L52.03,49.586 L51.825,49.928 L51.825,50.749 L51.654,50.851 L50.8,52.765 L49.774,53.996 L49.774,54.337 L48.065,56.012 L46.527,57.414 L44.545,58.61 L42.597,59.533 L41.845,59.943 L41.4,59.943 L39.828,60.524 L37.436,61.105 L34.906,61.515 L33.744,61.378 L33.095,61.378 L30.497,61.208 L29.472,61.071 L26.874,60.216 L26.464,60.182 L24.413,59.123 L22.841,58.063 L21.85,57.072 L19.696,54.235 L19.628,53.791 L19.047,52.423 L18.5,49.86 L18.534,47.843 L18.534,47.57 L18.773,47.023 L18.876,45.69 L19.491,43.639 L20.414,41.657 L22.362,39.333 L22.704,39.367 L22.841,38.957 L24.516,37.692 L27.045,36.53 L29.198,36.017 L32.343,35.675 L33.744,35.846 L36.205,36.359 L36.308,36.496 L36.513,36.53 L38.598,37.624 L38.974,37.692 L39.145,38.17 L39.623,38.102 L40.17,39.059 L40.375,39.23 L40.956,39.572 L42.05,41.554 L42.084,41.657 L42.392,41.862 L42.699,43.332 L42.46,43.537 L42.87,45.109 L42.46,45.451 L42.768,45.621 L42.392,46.647 L42.426,46.886 L42.118,47.331 L42.323,47.536 L42.016,47.775 L41.571,48.595 L40.443,50.065 L40.307,50.338 L39.896,50.338 L38.017,51.637 L36.683,51.979 L34.018,52.184 L32.821,51.74 L31.83,50.988 L30.634,49.655 L30.053,47.604 L30.053,47.331 L30.395,46.305 L31.215,45.041 L31.83,44.665 L33.266,44.152 L33.505,44.459 L33.847,44.459 L34.359,44.972 L34.633,45.417 L34.838,45.861 L34.564,46.1 L34.462,46.579 L33.744,47.809 L33.812,47.843 L32.821,47.809 L31.967,47.536 L31.762,47.843 L31.625,48.629 L31.898,49.518 L32.89,50.749 L34.223,51.022 L35.624,51.056 L36.171,50.749 L36.41,50.749 L37.914,49.416 L37.914,49.347 L38.358,48.664 L38.324,48.458 L39.35,46.168 L39.555,43.297 L39.008,41.452 L38.324,40.016 L37.23,38.786 L35.59,37.589 L34.154,37.145 L32.377,36.769 L30.326,36.906 L29.779,37.111 L27.147,38.102 L25.78,39.196 L25.507,39.333 L23.593,41.144 L22.499,42.819 L21.986,43.673 L21.645,45.006 L21.337,46.92 L21.268,47.843 L21.234,49.005 L21.61,50.099 L21.884,51.808 L22.704,53.62 L23.559,55.465 L23.695,55.602 L24.003,55.704 L24.721,56.73 L25.678,57.584 L28.002,59.054 L29.335,59.601 L31.522,59.909 L33.881,59.977 L34.223,59.84 L34.701,60.045 L35.077,59.806 L36.479,59.567 L36.649,59.499 L37.333,59.396 L39.281,58.712 L40.922,57.721 L41.024,57.721 L42.357,56.867 L43.69,55.739 L44.34,55.124 L45.775,53.244 L46.698,51.569 L47.04,50.27 L47.587,48.151 L47.519,47.057 L47.929,46.271 L47.724,45.758 L47.826,44.904 L47.689,44.63 L47.416,43.161 L46.869,41.212 L46.527,40.153 L45.365,38.136 L45.263,38 L44.135,36.974 L43.861,36.461 L43.588,36.359 L42.87,35.641 L41.64,34.547 L41.229,34.206 L36.923,31.129 L35.692,30.241 L33.642,28.258 L32.616,26.72 L31.351,23.473 L31.215,20.705 L31.146,20.158 L31.557,19.44 L31.488,19.235 L32.172,17.252 L32.992,15.954 L34.838,13.903 L36.854,12.604 L39.418,11.134 L40.443,10.827 L41.845,10.758 L43.144,10.485 L43.827,10.553 L44.477,10.485 z" filter="url(#Shadow_1)" fill="rgba(0,0,0,0.9)"/>
      <path d="M43.827,10.553 L44.477,10.485 L45.365,10.758 L45.707,10.656 L46.049,10.861 L46.732,10.827 L48.202,11.339 L49.569,12.331 L50.834,13.048 L51.996,14.279 L52.543,15.338 L52.782,15.475 L53.09,16.261 L53.5,18.517 L53.466,19.679 L53.329,19.816 L53.261,21.012 L52.543,23.371 L52.167,24.02 L51.962,24.054 L51.859,24.464 L50.8,25.592 L50.287,25.866 L50.15,26.208 L48.339,27.301 L47.553,27.541 L46.083,27.746 L45.707,27.575 L44.955,27.609 L43.52,27.062 L42.187,26.173 L41.229,24.635 L40.854,23.371 L41.093,21.525 L41.298,21.422 L41.298,21.217 L42.016,19.884 L42.323,19.474 L44.032,18.517 L44.75,18.585 L46.425,19.85 L46.356,20.226 L46.63,20.226 L46.835,20.705 L47.245,20.91 L47.245,21.081 L47.04,21.149 L46.767,20.944 L45.058,21.457 L43.998,22.619 L43.896,23.473 L43.622,23.815 L43.759,24.875 L44.169,26.002 L45.16,26.72 L45.81,26.823 L46.938,26.686 L49.262,25.421 L51.107,23.268 L51.449,22.55 L51.825,21.627 L52.338,19.269 L52.167,18.859 L52.133,17.628 L51.962,17.321 L52.133,16.979 L51.757,16.398 L51.586,16.227 L51.107,14.962 L49.877,13.869 L48.065,12.912 L45.946,12.501 L44.032,12.536 L42.152,13.014 L40.033,13.971 L38.803,14.86 L38.666,14.723 L37.401,16.398 L36.684,17.252 L36.444,17.799 L36.103,17.936 L36.171,18.209 L35.453,18.996 L35.658,19.645 L35.248,20.089 L35.214,20.978 L34.94,22.79 L35.009,23.747 L35.521,25.832 L35.761,26.481 L36.171,26.789 L36.444,27.711 L37.982,29.625 L40.614,31.642 L42.323,32.736 L43.178,33.385 L44.853,34.376 L47.211,36.051 L48.646,37.453 L48.715,37.863 L49.296,38.102 L49.262,38.512 L49.569,38.649 L49.911,39.264 L50.253,39.333 L50.766,40.05 L50.971,40.768 L51.518,41.281 L52.099,43.4 L51.894,43.537 L52.201,43.844 L52.133,44.152 L52.44,44.801 L52.338,45.109 L52.509,45.28 L52.509,47.262 L52.338,47.467 L52.406,48.048 L52.133,48.356 L52.27,48.766 L51.894,49.313 L52.03,49.586 L51.825,49.928 L51.825,50.749 L51.654,50.851 L50.8,52.765 L49.774,53.996 L49.774,54.337 L48.065,56.012 L46.527,57.414 L44.545,58.61 L42.597,59.533 L41.845,59.943 L41.4,59.943 L39.828,60.524 L37.436,61.105 L34.906,61.515 L33.744,61.378 L33.095,61.378 L30.497,61.208 L29.472,61.071 L26.874,60.216 L26.464,60.182 L24.413,59.123 L22.841,58.063 L21.85,57.072 L19.696,54.235 L19.628,53.791 L19.047,52.423 L18.5,49.86 L18.534,47.843 L18.534,47.57 L18.773,47.023 L18.876,45.69 L19.491,43.639 L20.414,41.657 L22.362,39.333 L22.704,39.367 L22.841,38.957 L24.516,37.692 L27.045,36.53 L29.198,36.017 L32.343,35.675 L33.744,35.846 L36.205,36.359 L36.308,36.496 L36.513,36.53 L38.598,37.624 L38.974,37.692 L39.145,38.17 L39.623,38.102 L40.17,39.059 L40.375,39.23 L40.956,39.572 L42.05,41.554 L42.084,41.657 L42.392,41.862 L42.699,43.332 L42.46,43.537 L42.87,45.109 L42.46,45.451 L42.768,45.622 L42.392,46.647 L42.426,46.886 L42.118,47.331 L42.323,47.536 L42.016,47.775 L41.571,48.595 L40.443,50.065 L40.307,50.338 L39.896,50.338 L38.017,51.637 L36.684,51.979 L34.018,52.184 L32.821,51.74 L31.83,50.988 L30.634,49.655 L30.053,47.604 L30.053,47.331 L30.395,46.305 L31.215,45.041 L31.83,44.665 L33.266,44.152 L33.505,44.459 L33.847,44.459 L34.359,44.972 L34.633,45.417 L34.838,45.861 L34.564,46.1 L34.462,46.579 L33.744,47.809 L33.812,47.843 L32.821,47.809 L31.967,47.536 L31.762,47.843 L31.625,48.629 L31.898,49.518 L32.89,50.749 L34.223,51.022 L35.624,51.056 L36.171,50.749 L36.41,50.749 L37.914,49.416 L37.914,49.347 L38.358,48.664 L38.324,48.458 L39.35,46.168 L39.555,43.297 L39.008,41.452 L38.324,40.016 L37.23,38.786 L35.59,37.589 L34.154,37.145 L32.377,36.769 L30.326,36.906 L29.779,37.111 L27.147,38.102 L25.78,39.196 L25.507,39.333 L23.593,41.144 L22.499,42.819 L21.986,43.673 L21.645,45.006 L21.337,46.92 L21.269,47.843 L21.234,49.005 L21.61,50.099 L21.884,51.808 L22.704,53.62 L23.559,55.465 L23.695,55.602 L24.003,55.705 L24.721,56.73 L25.678,57.584 L28.002,59.054 L29.335,59.601 L31.522,59.909 L33.881,59.977 L34.223,59.84 L34.701,60.045 L35.077,59.806 L36.479,59.567 L36.649,59.499 L37.333,59.396 L39.281,58.712 L40.922,57.721 L41.024,57.721 L42.357,56.867 L43.69,55.739 L44.34,55.124 L45.775,53.244 L46.698,51.569 L47.04,50.27 L47.587,48.151 L47.519,47.057 L47.929,46.271 L47.724,45.758 L47.826,44.904 L47.689,44.63 L47.416,43.161 L46.869,41.212 L46.527,40.153 L45.365,38.136 L45.263,38 L44.135,36.974 L43.861,36.461 L43.588,36.359 L42.87,35.641 L41.64,34.547 L41.229,34.206 L36.923,31.129 L35.692,30.241 L33.642,28.258 L32.616,26.72 L31.352,23.473 L31.215,20.705 L31.146,20.158 L31.557,19.44 L31.488,19.235 L32.172,17.252 L32.992,15.954 L34.838,13.903 L36.854,12.604 L39.418,11.134 L40.443,10.827 L41.845,10.758 L43.144,10.485 z" fill="#320082"/>
      <path d="M12.5,2.485 L59.5,2.485 L59.5,69.515 L12.5,69.515 z M44.477,10.485 L43.827,10.553 L43.144,10.485 L41.845,10.758 L40.443,10.827 L39.418,11.134 L36.854,12.604 L34.838,13.903 L32.992,15.954 L32.172,17.252 L31.488,19.235 L31.557,19.44 L31.146,20.158 L31.215,20.705 L31.351,23.473 L32.616,26.72 L33.642,28.258 L35.692,30.241 L36.923,31.129 L41.229,34.206 L41.64,34.547 L42.87,35.641 L43.588,36.359 L43.861,36.461 L44.135,36.974 L45.263,38 L45.365,38.136 L46.527,40.153 L46.869,41.212 L47.416,43.161 L47.689,44.63 L47.826,44.904 L47.724,45.758 L47.929,46.271 L47.519,47.057 L47.587,48.151 L47.04,50.27 L46.698,51.569 L45.775,53.244 L44.34,55.124 L43.69,55.739 L42.357,56.867 L41.024,57.721 L40.922,57.721 L39.281,58.712 L37.333,59.396 L36.649,59.499 L36.479,59.567 L35.077,59.806 L34.701,60.045 L34.223,59.84 L33.881,59.977 L31.522,59.909 L29.335,59.601 L28.002,59.054 L25.678,57.584 L24.721,56.73 L24.003,55.704 L23.695,55.602 L23.559,55.465 L22.704,53.62 L21.884,51.808 L21.61,50.099 L21.234,49.005 L21.268,47.843 L21.337,46.92 L21.645,45.006 L21.986,43.673 L22.499,42.819 L23.593,41.144 L25.507,39.333 L25.78,39.196 L27.147,38.102 L29.779,37.111 L30.326,36.906 L32.377,36.769 L34.154,37.145 L35.59,37.589 L37.23,38.786 L38.324,40.016 L39.008,41.452 L39.555,43.297 L39.35,46.168 L38.324,48.458 L38.358,48.664 L37.914,49.347 L37.914,49.416 L36.41,50.749 L36.171,50.749 L35.624,51.056 L34.223,51.022 L32.89,50.749 L31.898,49.518 L31.625,48.629 L31.762,47.843 L31.967,47.536 L32.821,47.809 L33.812,47.843 L33.744,47.809 L34.462,46.579 L34.564,46.1 L34.838,45.861 L34.633,45.417 L34.359,44.972 L33.847,44.459 L33.505,44.459 L33.266,44.152 L31.83,44.665 L31.215,45.041 L30.395,46.305 L30.053,47.331 L30.053,47.604 L30.634,49.655 L31.83,50.988 L32.821,51.74 L34.018,52.184 L36.683,51.979 L38.017,51.637 L39.896,50.338 L40.307,50.338 L40.443,50.065 L41.571,48.595 L42.016,47.775 L42.323,47.536 L42.118,47.331 L42.426,46.886 L42.392,46.647 L42.768,45.621 L42.46,45.451 L42.87,45.109 L42.46,43.537 L42.699,43.332 L42.392,41.862 L42.084,41.657 L42.05,41.554 L40.956,39.572 L40.375,39.23 L40.17,39.059 L39.623,38.102 L39.145,38.17 L38.974,37.692 L38.598,37.624 L36.513,36.53 L36.308,36.496 L36.205,36.359 L33.744,35.846 L32.343,35.675 L29.198,36.017 L27.045,36.53 L24.516,37.692 L22.841,38.957 L22.704,39.367 L22.362,39.333 L20.414,41.657 L19.491,43.639 L18.876,45.69 L18.773,47.023 L18.534,47.57 L18.534,47.843 L18.5,49.86 L19.047,52.423 L19.628,53.791 L19.696,54.235 L21.85,57.072 L22.841,58.063 L24.413,59.123 L26.464,60.182 L26.874,60.216 L29.472,61.071 L30.497,61.208 L33.095,61.378 L33.744,61.378 L34.906,61.515 L37.436,61.105 L39.828,60.524 L41.4,59.943 L41.845,59.943 L42.597,59.533 L44.545,58.61 L46.527,57.414 L48.065,56.012 L49.774,54.337 L49.774,53.996 L50.8,52.765 L51.654,50.851 L51.825,50.749 L51.825,49.928 L52.03,49.586 L51.894,49.313 L52.27,48.766 L52.133,48.356 L52.406,48.048 L52.338,47.467 L52.509,47.262 L52.509,45.28 L52.338,45.109 L52.44,44.801 L52.133,44.152 L52.201,43.844 L51.894,43.537 L52.099,43.4 L51.518,41.281 L50.971,40.768 L50.766,40.05 L50.253,39.333 L49.911,39.264 L49.569,38.649 L49.262,38.512 L49.296,38.102 L48.715,37.863 L48.646,37.453 L47.211,36.051 L44.853,34.376 L43.178,33.385 L42.323,32.736 L40.614,31.642 L37.982,29.625 L36.444,27.711 L36.171,26.788 L35.761,26.481 L35.521,25.831 L35.009,23.747 L34.94,22.789 L35.214,20.978 L35.248,20.089 L35.658,19.645 L35.453,18.996 L36.171,18.209 L36.103,17.936 L36.444,17.799 L36.683,17.252 L37.401,16.398 L38.666,14.723 L38.803,14.86 L40.033,13.971 L42.152,13.014 L44.032,12.536 L45.946,12.501 L48.065,12.912 L49.877,13.869 L51.107,14.962 L51.586,16.227 L51.757,16.398 L52.133,16.979 L51.962,17.321 L52.133,17.628 L52.167,18.859 L52.338,19.269 L51.825,21.627 L51.449,22.55 L51.107,23.268 L49.262,25.421 L46.938,26.686 L45.81,26.823 L45.16,26.72 L44.169,26.002 L43.759,24.875 L43.622,23.815 L43.896,23.473 L43.998,22.619 L45.058,21.456 L46.766,20.944 L47.04,21.149 L47.245,21.08 L47.245,20.91 L46.835,20.705 L46.63,20.226 L46.356,20.226 L46.425,19.85 L44.75,18.585 L44.032,18.517 L42.323,19.474 L42.016,19.884 L41.298,21.217 L41.298,21.422 L41.093,21.525 L40.854,23.371 L41.229,24.635 L42.187,26.173 L43.52,27.062 L44.955,27.609 L45.707,27.575 L46.083,27.746 L47.553,27.541 L48.339,27.301 L50.15,26.208 L50.287,25.866 L50.8,25.592 L51.859,24.464 L51.962,24.054 L52.167,24.02 L52.543,23.371 L53.261,21.012 L53.329,19.816 L53.466,19.679 L53.5,18.517 L53.09,16.261 L52.782,15.475 L52.543,15.338 L51.996,14.279 L50.834,13.048 L49.569,12.33 L48.202,11.339 L46.732,10.827 L46.049,10.861 L45.707,10.656 L45.365,10.758 L44.477,10.485 z" clip-path="url(#Clip_2)" filter="url(#InnerShadow_3)" fill="rgba(0,0,0,0.75)"/>
    </g>
  </g>
</svg>
